{"title":"Girl Meets World 2014 (Pilot) [Re-Encoded] HD720p -GHOST-","uid":10465270,"size":1857224438,"categoryP":"video","categoryS":"hd___tv_shows","magnet":"?xt=urn:btih:b2d630131be643087af98fe03fc671d2973a33fa&amp;dn=Girl+Meets+World+2014+%28Pilot%29+%5BRe-Encoded%5D+HD720p+-GHOST-&amp;tr=udp%3A%2F%2Ftracker.openbittorrent.com%3A80&amp;tr=udp%3A%2F%2Fopen.demonii.com%3A1337&amp;tr=udp%3A%2F%2Ftracker.coppersurfer.tk%3A6969&amp;tr=udp%3A%2F%2Fexodus.desync.com%3A6969","seeders":3,"leechers":0,"uploader":"---GHOST---","files":-1,"time":1404181729,"description":" Girl Meets World 2014 (Pilot) [Re-Encoded] HD720p -GHOST-\n===========================================================\n\n\nRe-encoded to h264 HD 720p AC3 , Fix audio (encoded to AC-3)\n\n\n\n Girl Meets World 2014 (Pilot)\n===============================\n\nA decade after &quot;Boy Meets World,&quot; Cory and Topanga Matthews are married and have two children. \nTheir daughter, Riley, faces life lessons through her family, friends, and school, as her parents\ndid when they were younger.\n\nIMDB &lt;a href=&quot;\nhttp://www.imdb.com/title/tt2543796/&quot; rel=&quot;nofollow&quot; target=&quot;_NEW&quot;&gt;\nhttp://www.imdb.com/title/tt2543796/&lt;/a&gt;\n\nSnapshots:\n &lt;a href=&quot;\nhttp://bayimg.com/nAPCbaaFA&quot; rel=&quot;nofollow&quot; target=&quot;_NEW&quot;&gt;\nhttp://bayimg.com/nAPCbaaFA&lt;/a&gt; &lt;a href=&quot;\nhttp://bayimg.com/nAPcCaAfA&quot; rel=&quot;nofollow&quot; target=&quot;_NEW&quot;&gt;\nhttp://bayimg.com/nAPcCaAfA&lt;/a&gt; &lt;a href=&quot;\nhttp://bayimg.com/NaPcdaAfA&quot; rel=&quot;nofollow&quot; target=&quot;_NEW&quot;&gt;\nhttp://bayimg.com/NaPcdaAfA&lt;/a&gt; &lt;a href=&quot;\nhttp://bayimg.com/NaPcEAaFa&quot; rel=&quot;nofollow&quot; target=&quot;_NEW&quot;&gt;\nhttp://bayimg.com/NaPcEAaFa&lt;/a&gt;\n\n----------------------------------------------------------\n\nGeneral\n\nComplete name                            : Girl Meets World 2014 (Pilot).mp4\nFormat                                   : MPEG-4\nFormat profile                           : Base Media\nCodec ID                                 : isom\nFile size                                : 1.73 GiB\nDuration                                 : 22mn 32s\nOverall bit rate mode                    : Constant\nOverall bit rate                         : 11.0 Mbps\nEncoded date                             : UTC 2014-06-30 04:06:24\nTagged date                              : UTC 2014-06-30 04:06:24\nWriting application                      : Lavf53.24.2\n\nVideo\n\nID                                       : 1\nFormat                                   : AVC\nFormat/Info                              : Advanced Video Codec\nFormat profile                           : &lt;a class=&quot;__cf_email__&quot; href=&quot;/cdn-cgi/l/email-protection&quot; data-cfemail=&quot;6b290a180e0702050e2b2758455a&quot;&gt;[email&amp;#160;protected]&lt;/a&gt;&lt;script cf-hash='f9e31' type=&quot;text/javascript&quot;&gt;\n/* &lt;![CDATA[ */!function(){try{var t=&quot;currentScript&quot;in document?document.currentScript:function(){for(var t=document.getElementsByTagName(&quot;script&quot;),e=t.length;e--;)if(t[e].getAttribute(&quot;cf-hash&quot;))return t[e]}();if(t&amp;&amp;t.previousSibling){var e,r,n,i,c=t.previousSibling,a=c.getAttribute(&quot;data-cfemail&quot;);if(a){for(e=&quot;&quot;,r=parseInt(a.substr(0,2),16),n=2;a.length-n;n+=2)i=parseInt(a.substr(n,2),16)^r,e+=String.fromCharCode(i);e=document.createTextNode(e),c.parentNode.replaceChild(e,c)}}}catch(u){}}();/* ]]&gt; */&lt;/script&gt;\nFormat settings, CABAC                   : No\nFormat settings, ReFrames                : 1 frame\nFormat settings, GOP                     : M=1, N=15\nCodec ID                                 : avc1\nCodec ID/Info                            : Advanced Video Coding\nDuration                                 : 22mn 32s\nBit rate mode                            : Constant\nBit rate                                 : 10.7 Mbps\nWidth                                    : 1 280 pixels\nHeight                                   : 720 pixels\nDisplay aspect ratio                     : 16:9\nFrame rate mode                          : Constant\nFrame rate                               : 30.000 fps\nColor space                              : YUV\nChroma subsampling                       : 4:2:0\nBit depth                                : 8 bits\nScan type                                : Progressive\nBits/(Pixel*Frame)                       : 0.386\nStream size                              : 1.68 GiB (97%)\nLanguage                                 : English\nEncoded date                             : UTC 2014-06-30 04:06:24\nTagged date                              : UTC 2014-06-30 04:06:24\n\nAudio\n\nID                                       : 2\nFormat                                   : AC-3\nFormat/Info                              : Audio Coding 3\nMode extension                           : CM (complete main)\nFormat settings, Endianness              : Big\nCodec ID                                 : ac-3\nDuration                                 : 22mn 32s\nBit rate mode                            : Constant\nBit rate                                 : 320 Kbps\nChannel(s)                               : 2 channels\nChannel positions                        : Front: L R\nSampling rate                            : 48.0 KHz\nBit depth                                : 16 bits\nCompression mode                         : Lossy\nStream size                              : 51.6 MiB (3%)\nLanguage                                 : English\nEncoded date                             : UTC 2014-06-30 04:06:24\nTagged date                              : UTC 2014-06-30 04:06:24\n\n","torrent":{"xt":"urn:btih:b2d630131be643087af98fe03fc671d2973a33fa","amp;dn":"Girl+Meets+World+2014+%28Pilot%29+%5BRe-Encoded%5D+HD720p+-GHOST-","amp;tr":["udp%3A%2F%2Ftracker.openbittorrent.com%3A80","udp%3A%2F%2Fopen.demonii.com%3A1337","udp%3A%2F%2Ftracker.coppersurfer.tk%3A6969","udp%3A%2F%2Fexodus.desync.com%3A6969"],"infoHash":"b2d630131be643087af98fe03fc671d2973a33fa","infoHashBuffer":{"type":"Buffer","data":[178,214,48,19,27,230,67,8,122,249,143,224,63,198,113,210,151,58,51,250]},"announce":[],"urlList":[]}}